<svg width="800" height="600" xmlns="http://www.w3.org/2000/svg">

 <g>
  <title>Layer 1</title>
  <g stroke="null">
   <g stroke="null">
    <path stroke="null" fill="#5B9BA2" clip-rule="evenodd" fill-rule="evenodd" d="m44.29204,54.21202l714.41597,0c10.12982,0 19.29797,3.26493 25.96582,8.5704c6.66785,5.30556 10.77118,12.60068 10.77118,20.6609l0,363.58044c0,8.06039 -4.10333,15.35544 -10.77118,20.66098c-6.66785,5.30554 -15.836,8.57037 -25.96582,8.57037l-15.25909,0l-32.12085,-49.28003c1.79517,-4.33609 3.01331,-8.62149 3.84686,-12.85559l0.513,-2.70377c3.59033,-3.21396 7.11646,-6.9379 10.45032,-11.27417c0.57703,-0.7652 1.15424,-1.53055 1.7312,-2.3468c5.64203,-8.06021 9.36047,-16.52863 11.15564,-25.60922c0.12817,-0.56107 0.19238,-1.1734 0.32068,-1.73447l16.15656,-12.85562l0,-184.7746l-109.18524,-86.82681l-489.69838,0l-109.12099,86.82681l0,184.7746l109.12099,86.82666l238.82253,0l-19.74701,30.35358c-0.3205,0.45923 -0.64099,0.9693 -0.96167,1.42853l-330.4405,0c-10.13003,0 -19.2982,-3.26501 -25.96606,-8.57056c-6.66766,-5.25446 -10.77101,-12.5495 -10.77101,-20.60989l0,-363.58044c0,-8.06023 4.10335,-15.35535 10.77101,-20.6609c6.66785,-5.30547 15.83603,-8.5704 25.96606,-8.5704l0,0zm514.76661,211.04713c3.46216,-0.15305 6.53967,0.30606 9.42468,1.07126c2.82098,0.7652 5.3855,1.93857 8.07837,3.21393c2.69263,1.37735 5.51361,3.21396 8.46301,5.30557l0.19232,0.15305c3.71851,2.55072 7.8858,5.35645 12.50201,7.44806c3.78265,1.68341 9.36066,1.83646 15.25903,2.09161c11.09167,0.30609 23.14502,0.71414 31.09497,10.10077l0,0c6.86023,8.21341 7.43719,14.38614 7.88605,20.60992l0.12817,0.66321c0.19232,3.00986 0.64117,5.81558 1.98749,8.87646c1.34637,3.1629 3.65448,6.52985 7.5014,10.66205l0,0c7.24481,7.60126 11.54028,14.02896 13.20734,19.94669c1.73096,6.22379 0.57697,11.78433 -3.39807,17.49811l-0.1283,0.15286c-2.94916,4.08124 -7.30884,7.04004 -11.09149,9.59076c-2.82104,1.9386 -5.32153,3.62216 -6.09088,4.99948c-2.05164,3.77502 -2.11566,7.19305 -2.11566,10.81506c-0.12836,4.89734 -0.19232,9.94791 -4.23151,16.42667l-0.06415,0.15305c-2.62866,3.97913 -5.89838,7.3461 -9.80939,10.04987c-4.03918,2.75485 -8.78345,4.84647 -14.16901,6.22379c-4.80847,1.22446 -9.23236,1.02032 -13.59204,0.76517c-3.59052,-0.20395 -6.86011,-0.35712 -9.36066,0.45929l-0.3205,0.05093c-5.19318,1.78549 -9.9375,4.84644 -14.42548,7.65216c-5.00085,3.21393 -9.74518,6.22375 -15.13074,7.60126l0,0c-3.97516,1.0202 -7.88599,1.47931 -11.86096,1.47931c-3.97504,0 -7.88599,-0.45911 -11.86102,-1.47931l-0.19238,-0.05106c-5.32147,-1.32645 -10.00165,-4.38733 -15.00244,-7.60114c-4.55225,-2.90784 -9.36072,-5.96875 -14.68207,-7.7543c-2.50049,-0.86716 -5.7702,-0.61215 -9.36053,-0.45911c-4.23151,0.20413 -8.78369,0.45911 -13.65619,-0.7652l-0.2565,-0.10214c-5.32132,-1.37732 -9.9375,-3.41788 -13.97668,-6.12164c-3.97501,-2.75482 -7.30881,-6.12177 -9.80936,-10.20288c-4.03918,-6.42789 -4.10333,-11.47827 -4.23151,-16.37561c-0.12817,-3.62216 -0.12817,-7.04004 -2.11584,-10.81522l-0.064,-0.05106c-0.83353,-1.47934 -3.39798,-3.16275 -6.15503,-5.05038c-3.84665,-2.60165 -8.2063,-5.50952 -11.09149,-9.59061l-0.19235,-0.25519c-3.97495,-5.61163 -5.00082,-11.12112 -3.26984,-17.29382c1.66702,-5.91772 6.09085,-12.34561 13.27155,-19.94669c3.97498,-4.0813 6.15482,-7.49918 7.50116,-10.66205c1.3465,-3.06088 1.85934,-5.96878 2.0517,-8.97861l0.12833,-0.61212c0.44867,-6.22379 1.08984,-12.54968 7.88583,-20.60992l0.19235,-0.15305c7.88602,-9.2847 19.87518,-9.59073 30.83853,-9.89682c5.8985,-0.15305 11.54053,-0.40805 15.32324,-2.09161l0.12811,-0.10196c4.55225,-2.09164 8.6554,-4.84644 12.43805,-7.44809c3.01331,-2.09161 5.77032,-3.97916 8.65533,-5.35663c2.62872,-1.37732 5.32135,-2.44861 8.07837,-3.21393c3.01337,-0.71414 6.09064,-1.07129 9.48865,-1.0202l0,0l0,0zm117.51996,254.66443l-28.97919,-4.1322l-14.55383,20.763c-0.06396,0.15302 -0.19232,0.30603 -0.3847,0.40802c-6.09064,5.96881 -11.66864,5.81573 -16.47711,2.70392c-5.19318,-3.36713 -8.6554,-10.56 -10.89923,-15.30432l-0.8335,-1.83667l-30.71033,-46.16803c-0.96173,-1.47949 -0.25653,-3.21393 1.53882,-3.92822c0.19214,-0.10199 0.38446,-0.15308 0.51282,-0.15308c3.20569,-0.86713 6.73181,-2.60175 10.57867,-4.89734c4.03918,-2.39771 8.27069,-5.35663 12.63031,-8.41754c0.76935,-0.5611 1.73102,-0.86713 2.82104,-0.76501c8.27063,0.15308 16.34882,-0.40817 23.59369,-2.29572c7.1167,-1.93857 13.65619,-5.30554 19.23401,-10.96823c1.28235,-1.32626 3.59033,-1.53036 5.12897,-0.5611c0.38489,0.30606 0.76959,0.61215 0.96185,1.02036l35.51892,54.58545l3.07733,5.30554c0.12817,0.15302 0.19232,0.30609 0.19232,0.45917c1.41052,4.08105 1.73102,7.60107 0,10.25391c-1.92334,3.00983 -5.70599,4.54041 -12.05334,4.13214c-0.19232,-0.05103 -0.57703,-0.15302 -0.89752,-0.20404l0,0l0,0zm-205.86826,-4.1322l-28.97922,4.1322c-0.25653,0.05103 -0.577,0.05103 -0.96167,0.05103c-6.34735,0.40808 -10.13,-1.17334 -12.05334,-4.13214c-1.7312,-2.60181 -1.4747,-6.12177 0,-10.25397l0.19232,-0.45911l3.07733,-5.3056l35.51889,-54.58539c0.19235,-0.40823 0.57721,-0.71429 0.96185,-1.02039c1.66684,-1.02017 3.84668,-0.76517 5.12903,0.51022c5.51385,5.6116 12.05331,8.97842 19.29816,10.96808c7.30887,1.98962 15.32303,2.4487 23.59372,2.29568c0.96167,-0.05106 1.92334,0.15302 2.82104,0.7652c4.35962,3.06091 8.59119,6.07074 12.63037,8.41736c3.8468,2.29578 7.43695,4.08124 10.57861,4.89752l0.44891,0.15289c1.85931,0.76532 2.50024,2.55072 1.53864,3.92816l-30.71045,46.11719l-0.89746,1.7854c-2.17981,4.74445 -5.642,11.93738 -10.89935,15.30438c-4.80853,3.06091 -10.32217,3.31604 -16.47699,-2.7038c-0.12836,-0.15302 -0.25653,-0.20392 -0.38486,-0.35712l-14.42554,-20.50781l0,0l0,0zm133.22763,-194.26321c-11.47607,-9.13165 -27.24811,-14.79434 -44.81519,-14.79434c-17.56696,0 -33.33887,5.66269 -44.81519,14.79434c-11.47635,9.1315 -18.59286,21.68118 -18.59286,35.65909c0,13.92703 7.11652,26.52747 18.59286,35.65912c11.47632,9.13165 27.24823,14.79434 44.81519,14.79434c17.50305,0 33.33911,-5.66269 44.81519,-14.79434c11.47644,-9.13165 18.59308,-21.68115 18.59308,-35.65912c-0.06415,-13.87595 -7.11664,-26.52759 -18.59308,-35.65909l0,0l0,0zm-397.50323,-6.3259c-2.56448,0 -4.87248,-1.27539 -6.53949,-3.26486c-1.66702,-2.04053 -2.75682,-4.84644 -2.75682,-7.95825c0,-3.11197 1.02583,-5.91772 2.75682,-7.95825c1.66701,-2.04071 4.03917,-3.26501 6.53949,-3.26501l109.634,0c2.56451,0 4.87271,1.27536 6.5397,3.26501c1.66684,2.04053 2.69266,4.84628 2.69266,7.95825c0,3.11182 -1.02582,5.96863 -2.69266,7.95825c-1.66699,2.04056 -4.03918,3.26486 -6.5397,3.26486l-109.634,0l0,0l0,0zm-6.92415,69.78799c27.05586,-28.26212 50.20073,-15.40649 82.51396,2.55057c1.60284,0.91837 3.26984,1.78552 4.87268,2.70392c4.61618,2.55072 9.48868,2.09161 14.36133,0.20407c5.25735,-2.09177 10.57867,-5.8157 15.83603,-9.53983l0.12814,-0.0509c4.74457,-3.3161 9.36072,-6.58093 14.36157,-9.0806c0.83331,-0.4082 1.98749,-0.2041 2.50031,0.45911l7.37302,9.23361c0.513,0.66324 0.2565,1.58145 -0.577,1.9895c-3.84665,1.9386 -8.01419,4.89734 -12.2457,7.85626l-0.12814,0.05109c-7.37302,5.2034 -14.93835,10.45792 -23.27319,13.21274c-8.59119,2.80573 -17.8877,2.80573 -28.2099,-2.90787l-4.93668,-2.75482c-12.43802,-6.9379 -23.08086,-12.80472 -32.69786,-14.6922c-9.1682,-1.73447 -17.56723,0.35715 -26.03004,9.18271c-0.64117,0.66321 -1.79517,0.76517 -2.5645,0.255l-10.89937,-6.58078c-0.8335,-0.51016 -1.02583,-1.42841 -0.38466,-2.09158l0,0l0,0zm6.92415,-214.31207c-2.56448,0 -4.93666,-1.27538 -6.60367,-3.26501s-2.75684,-4.84628 -2.75684,-7.90718c0,-3.11182 1.02585,-5.86664 2.75684,-7.9072c1.66701,-2.0407 4.03918,-3.265 6.60367,-3.265l265.1091,0c2.56451,0 4.93689,1.27536 6.6037,3.265c1.66696,2.04056 2.69284,4.84628 2.69284,7.9072c0,3.11195 -1.02588,5.86662 -2.69284,7.90718c-1.66681,2.04071 -4.03918,3.31607 -6.6037,3.31607l-265.1091,-0.05106l0,0l0,0zm0,75.96069c-2.56448,0 -4.87248,-1.27536 -6.53949,-3.31607l0,0c-1.66702,-2.04056 -2.75682,-4.84628 -2.75682,-7.9072c0,-3.11197 1.02583,-5.86664 2.75682,-7.95825c1.66701,-2.04053 4.03917,-3.26501 6.60368,-3.26501l211.89479,0c2.56473,0 4.87271,1.27539 6.5397,3.26501l0,0c1.66684,2.04056 2.75684,4.84628 2.75684,7.9072c0,3.11197 -1.02585,5.86664 -2.75684,7.90735l0,0c-1.66699,2.04053 -4.03918,3.26483 -6.5397,3.26483l-211.95898,0l0,0.10214l0,0z" class="st0"/>
   </g>
  </g>
 </g>
</svg>